<svg width="24" height="24" viewBox="0 0 24 24" fill="none" xmlns="http://www.w3.org/2000/svg">
<path d="M6.6 9.3H19.1442L19.5942 7.5H8.4V5.7H20.748C20.8848 5.7 21.0198 5.73119 21.1428 5.7912C21.2657 5.85121 21.3733 5.93846 21.4575 6.04631C21.5417 6.15416 21.6001 6.27978 21.6285 6.41362C21.6568 6.54746 21.6542 6.686 21.621 6.8187L19.371 15.8187C19.3222 16.0133 19.2099 16.1861 19.0517 16.3095C18.8935 16.4329 18.6986 16.5 18.498 16.5H5.7C5.46131 16.5 5.23239 16.4052 5.0636 16.2364C4.89482 16.0676 4.8 15.8387 4.8 15.6V4.8H3V3H5.7C5.93869 3 6.16761 3.09482 6.3364 3.2636C6.50518 3.43239 6.6 3.66131 6.6 3.9V9.3ZM6.6 21.9C6.12261 21.9 5.66477 21.7104 5.32721 21.3728C4.98964 21.0352 4.8 20.5774 4.8 20.1C4.8 19.6226 4.98964 19.1648 5.32721 18.8272C5.66477 18.4896 6.12261 18.3 6.6 18.3C7.07739 18.3 7.53523 18.4896 7.87279 18.8272C8.21036 19.1648 8.4 19.6226 8.4 20.1C8.4 20.5774 8.21036 21.0352 7.87279 21.3728C7.53523 21.7104 7.07739 21.9 6.6 21.9ZM17.4 21.9C16.9226 21.9 16.4648 21.7104 16.1272 21.3728C15.7896 21.0352 15.6 20.5774 15.6 20.1C15.6 19.6226 15.7896 19.1648 16.1272 18.8272C16.4648 18.4896 16.9226 18.3 17.4 18.3C17.8774 18.3 18.3352 18.4896 18.6728 18.8272C19.0104 19.1648 19.2 19.6226 19.2 20.1C19.2 20.5774 19.0104 21.0352 18.6728 21.3728C18.3352 21.7104 17.8774 21.9 17.4 21.9Z" fill="#D3FF55"/>
</svg>
