<svg width="32" height="32" viewBox="0 0 32 32" fill="none" xmlns="http://www.w3.org/2000/svg">
<path d="M29.7074 2.29255C29.6146 2.19958 29.5043 2.12582 29.3829 2.07549C29.2615 2.02517 29.1314 1.99927 28.9999 1.99927C28.8685 1.99927 28.7384 2.02517 28.617 2.07549C28.4956 2.12582 28.3853 2.19958 28.2924 2.29255L21.7424 8.8438L21.0712 8.1713C20.3202 7.42249 19.303 7.00199 18.2424 7.00199C17.1819 7.00199 16.1647 7.42249 15.4137 8.1713L12.4999 11.0863L11.7074 10.2926C11.5198 10.1049 11.2653 9.9995 10.9999 9.9995C10.7346 9.9995 10.4801 10.1049 10.2924 10.2926C10.1048 10.4802 9.99939 10.7347 9.99939 11.0001C9.99939 11.2654 10.1048 11.5199 10.2924 11.7076L11.0862 12.5001L8.1712 15.4138C7.79966 15.7853 7.50495 16.2262 7.30387 16.7116C7.10279 17.197 6.9993 17.7172 6.9993 18.2426C6.9993 18.7679 7.10279 19.2881 7.30387 19.7735C7.50495 20.2589 7.79966 20.6999 8.1712 21.0713L8.8437 21.7426L2.29245 28.2926C2.19954 28.3855 2.12584 28.4958 2.07555 28.6172C2.02527 28.7386 1.99939 28.8687 1.99939 29.0001C1.99939 29.1314 2.02527 29.2616 2.07555 29.3829C2.12584 29.5043 2.19954 29.6146 2.29245 29.7076C2.48009 29.8952 2.73458 30.0006 2.99995 30.0006C3.13134 30.0006 3.26145 29.9747 3.38284 29.9244C3.50424 29.8742 3.61454 29.8005 3.70745 29.7076L10.2574 23.1563L10.9287 23.8288C11.3001 24.2003 11.7411 24.4951 12.2265 24.6961C12.7119 24.8972 13.2321 25.0007 13.7574 25.0007C14.2828 25.0007 14.803 24.8972 15.2884 24.6961C15.7738 24.4951 16.2147 24.2003 16.5862 23.8288L19.4999 20.9138L20.2924 21.7076C20.3854 21.8005 20.4957 21.8742 20.6171 21.9244C20.7384 21.9747 20.8686 22.0006 20.9999 22.0006C21.1313 22.0006 21.2614 21.9747 21.3828 21.9244C21.5042 21.8742 21.6145 21.8005 21.7074 21.7076C21.8004 21.6146 21.8741 21.5043 21.9243 21.3829C21.9746 21.2616 22.0005 21.1314 22.0005 21.0001C22.0005 20.8687 21.9746 20.7386 21.9243 20.6172C21.8741 20.4958 21.8004 20.3855 21.7074 20.2926L20.9137 19.5001L23.8287 16.5863C24.2002 16.2149 24.4949 15.7739 24.696 15.2885C24.8971 14.8031 25.0006 14.2829 25.0006 13.7576C25.0006 13.2322 24.8971 12.712 24.696 12.2266C24.4949 11.7412 24.2002 11.3003 23.8287 10.9288L23.1562 10.2576L29.7074 3.70755C29.8004 3.61468 29.8742 3.50439 29.9245 3.38299C29.9748 3.2616 30.0007 3.13147 30.0007 3.00005C30.0007 2.86864 29.9748 2.73851 29.9245 2.61711C29.8742 2.49572 29.8004 2.38543 29.7074 2.29255ZM15.1712 22.4176C14.7962 22.7923 14.2877 23.0029 13.7574 23.0029C13.2272 23.0029 12.7187 22.7923 12.3437 22.4176L9.5862 19.6563C9.21141 19.2813 9.00087 18.7728 9.00087 18.2426C9.00087 17.7123 9.21141 17.2038 9.5862 16.8288L12.4999 13.9138L18.0862 19.5001L15.1712 22.4176ZM22.4137 15.1751L19.4999 18.0863L13.9137 12.5001L16.8287 9.5863C17.2037 9.21152 17.7122 9.00098 18.2424 9.00098C18.7727 9.00098 19.2812 9.21152 19.6562 9.5863L22.4137 12.3363C22.6004 12.5221 22.7486 12.743 22.8496 12.9863C22.9507 13.2295 23.0028 13.4904 23.0028 13.7538C23.0028 14.0172 22.9507 14.2781 22.8496 14.5213C22.7486 14.7646 22.6004 14.9855 22.4137 15.1713V15.1751ZM11.0712 4.37505C10.9717 4.12873 10.9742 3.85299 11.0781 3.60849C11.1819 3.36399 11.3786 3.17076 11.6249 3.0713C11.8713 2.97185 12.147 2.97432 12.3915 3.07816C12.636 3.18201 12.8292 3.37873 12.9287 3.62505L13.9287 6.12505C13.9779 6.24702 14.0027 6.37749 14.0015 6.50902C14.0003 6.64054 13.9733 6.77055 13.9218 6.89161C13.8704 7.01268 13.7957 7.12243 13.7018 7.2146C13.608 7.30677 13.4969 7.37956 13.3749 7.4288C13.253 7.47805 13.1225 7.50279 12.991 7.50161C12.8595 7.50044 12.7294 7.47336 12.6084 7.42194C12.4873 7.37052 12.3776 7.29576 12.2854 7.20193C12.1932 7.10809 12.1204 6.99702 12.0712 6.87505L11.0712 4.37505ZM3.0712 11.6251C3.12027 11.503 3.19296 11.3917 3.28509 11.2978C3.37723 11.2038 3.48701 11.129 3.60813 11.0776C3.72924 11.0261 3.85933 10.9991 3.99091 10.998C4.1225 10.9969 4.253 11.0218 4.37495 11.0713L6.87495 12.0713C6.99691 12.1206 7.10798 12.1933 7.20182 12.2855C7.29565 12.3777 7.37042 12.4874 7.42184 12.6085C7.47326 12.7296 7.50033 12.8596 7.5015 12.9911C7.50268 13.1226 7.47794 13.2531 7.4287 13.3751C7.37945 13.497 7.30666 13.6081 7.21449 13.7019C7.12232 13.7958 7.01257 13.8705 6.89151 13.9219C6.77044 13.9734 6.64043 14.0004 6.50891 14.0016C6.37738 14.0028 6.24691 13.9781 6.12495 13.9288L3.62495 12.9288C3.50285 12.8797 3.39163 12.807 3.29768 12.7149C3.20373 12.6228 3.12889 12.513 3.07744 12.3919C3.026 12.2708 2.99897 12.1407 2.9979 12.0091C2.99682 11.8775 3.02173 11.747 3.0712 11.6251ZM28.9287 20.3751C28.88 20.497 28.8077 20.6082 28.716 20.7023C28.6243 20.7963 28.5149 20.8713 28.3942 20.9231C28.2735 20.9749 28.1437 21.0024 28.0124 21.004C27.881 21.0056 27.7507 20.9813 27.6287 20.9326L25.1287 19.9326C25.0065 19.8836 24.8951 19.811 24.801 19.7189C24.7068 19.6269 24.6317 19.5172 24.5799 19.3961C24.5282 19.2751 24.5007 19.145 24.4992 19.0133C24.4977 18.8817 24.5222 18.751 24.5712 18.6288C24.6202 18.5066 24.6928 18.3952 24.7848 18.3011C24.8769 18.2069 24.9865 18.1318 25.1076 18.08C25.2287 18.0283 25.3587 18.0009 25.4904 17.9994C25.6221 17.9979 25.7527 18.0223 25.8749 18.0713L28.3749 19.0713C28.497 19.1204 28.6083 19.1931 28.7022 19.2852C28.7962 19.3773 28.871 19.4871 28.9224 19.6082C28.9739 19.7294 29.0009 19.8594 29.002 19.991C29.0031 20.1226 28.9782 20.2531 28.9287 20.3751ZM20.9287 27.6326C20.9774 27.7545 21.0017 27.8849 21.0001 28.0162C20.9984 28.1476 20.971 28.2773 20.9192 28.398C20.8674 28.5187 20.7924 28.6281 20.6984 28.7198C20.6043 28.8115 20.4932 28.8838 20.3712 28.9326C20.2492 28.9813 20.1189 29.0056 19.9875 29.0039C19.8562 29.0023 19.7264 28.9748 19.6057 28.923C19.485 28.8713 19.3757 28.7962 19.284 28.7022C19.1922 28.6082 19.12 28.497 19.0712 28.3751L18.0712 25.8751C17.9717 25.6287 17.9742 25.353 18.0781 25.1085C18.1819 24.864 18.3786 24.6708 18.6249 24.5713C18.8713 24.4718 19.147 24.4743 19.3915 24.5782C19.636 24.682 19.8292 24.8787 19.9287 25.1251L20.9287 27.6326Z" fill="#122C24"/>
</svg>
