<svg width="32" height="32" viewBox="0 0 32 32" fill="none" xmlns="http://www.w3.org/2000/svg">
<path d="M8.11909 19.9989C7.61454 18.8648 7.33325 17.6031 7.33325 16.2735C7.33325 11.3354 11.2135 7.33228 15.9999 7.33228C20.7865 7.33228 24.6666 11.3354 24.6666 16.2735C24.6666 17.6031 24.3853 18.8648 23.8807 19.9989" stroke="#122C24" stroke-width="2" stroke-linecap="round"/>
<path d="M16 2.66565V3.99898" stroke="#122C24" stroke-width="2" stroke-linecap="round" stroke-linejoin="round"/>
<path d="M29.3333 15.999H28" stroke="#122C24" stroke-width="2" stroke-linecap="round" stroke-linejoin="round"/>
<path d="M3.99996 15.999H2.66663" stroke="#122C24" stroke-width="2" stroke-linecap="round" stroke-linejoin="round"/>
<path d="M25.4272 6.57056L24.4844 7.51337" stroke="#122C24" stroke-width="2" stroke-linecap="round" stroke-linejoin="round"/>
<path d="M7.51569 7.51471L6.57288 6.5719" stroke="#122C24" stroke-width="2" stroke-linecap="round" stroke-linejoin="round"/>
<path d="M19.3554 25.7409C20.7638 25.2853 21.2903 23.9583 21.4131 22.6628C21.4396 22.3841 21.2119 22.1539 20.932 22.1539L11.1233 22.1542C10.8337 22.1542 10.6027 22.4 10.6321 22.6881C10.7675 24.0176 11.109 24.9728 12.6039 25.7409M19.3554 25.7409C19.3554 25.7409 12.839 25.7409 12.6039 25.7409M19.3554 25.7409C19.1934 28.3342 18.4444 29.3613 16.0084 29.3325C13.4028 29.3806 12.8034 28.1111 12.6039 25.7409" stroke="#122C24" stroke-width="2" stroke-linecap="round" stroke-linejoin="round"/>
</svg>
