<svg width="157" height="30" viewBox="0 0 157 30" fill="none" xmlns="http://www.w3.org/2000/svg">
<path d="M15.6887 17.0101C13.7895 19.0509 6.51288 22.5134 8.7848 26.2844C9.60089 27.6389 11.9503 27.5 13.5765 27.5H16.4235C20.6921 27.5 22.8264 27.5 24.2863 26.2857C25.7461 25.0715 26.0589 23.0362 26.6845 18.9655L27.0608 16.5168C27.502 13.6453 27.7227 12.2095 27.1798 10.9367C26.6369 9.6639 25.4325 8.79304 23.0236 7.05133L21.2238 5.75C18.2271 3.58333 16.7288 2.5 15 2.5C13.2712 2.5 11.7729 3.58333 8.77624 5.75L6.97642 7.05133C4.56753 8.79304 3.36309 9.6639 2.82021 10.9367C2.27733 12.2095 2.49796 13.6453 2.93924 16.5168L3.31553 18.9655C3.76054 21.8613 4.04726 23.7271 4.70127 25M15.2251 22.6574C18.1855 22.0842 20.2135 20.2623 21.1674 17.3188C22.2479 13.9851 20.7833 9.8547 17.0939 8.89923C17.0939 8.89923 18.2315 10.2553 17.4967 11.4448C16.08 13.9943 12.0307 13.1468 10.4067 16.3957C9.45039 18.2093 9.74032 20.3563 11.1173 21.6953C11.9825 22.5367 13.8035 22.9327 15.2251 22.6574Z" stroke="white" stroke-width="2" stroke-linecap="round" stroke-linejoin="round"/>
<path d="M48.03 26.36C45.89 26.36 43.99 25.9 42.33 24.98C40.69 24.04 39.4 22.76 38.46 21.14C37.52 19.5 37.05 17.62 37.05 15.5C37.05 13.38 37.52 11.51 38.46 9.89C39.4 8.25 40.69 6.97 42.33 6.05C43.99 5.11 45.89 4.64 48.03 4.64C49.31 4.64 50.49 4.83 51.57 5.21C52.65 5.59 53.6 6.12 54.42 6.8C55.26 7.46 55.96 8.22 56.52 9.08L53.16 11.18C52.82 10.64 52.37 10.16 51.81 9.74C51.27 9.32 50.67 8.99 50.01 8.75C49.35 8.51 48.69 8.39 48.03 8.39C46.71 8.39 45.54 8.7 44.52 9.32C43.5 9.92 42.7 10.75 42.12 11.81C41.54 12.87 41.25 14.1 41.25 15.5C41.25 16.88 41.53 18.11 42.09 19.19C42.67 20.27 43.48 21.12 44.52 21.74C45.56 22.34 46.76 22.64 48.12 22.64C49.18 22.64 50.12 22.43 50.94 22.01C51.78 21.59 52.44 21 52.92 20.24C53.4 19.48 53.64 18.6 53.64 17.6L57.54 17C57.54 18.98 57.13 20.67 56.31 22.07C55.51 23.47 54.39 24.54 52.95 25.28C51.53 26 49.89 26.36 48.03 26.36ZM48.72 17.96V14.75H57.54V17.3L55.32 17.96H48.72ZM59.3749 26V5H67.1749C68.6549 5 69.9649 5.29 71.1049 5.87C72.2449 6.45 73.1349 7.25 73.7749 8.27C74.4149 9.27 74.7349 10.44 74.7349 11.78C74.7349 13.1 74.3949 14.28 73.7149 15.32C73.0549 16.34 72.1449 17.14 70.9849 17.72C69.8249 18.28 68.5049 18.56 67.0249 18.56H63.4849V26H59.3749ZM70.9249 26L66.0649 17.57L69.2149 15.32L75.5749 26H70.9249ZM63.4849 14.81H67.2049C67.8249 14.81 68.3749 14.68 68.8549 14.42C69.3549 14.16 69.7449 13.8 70.0249 13.34C70.3249 12.88 70.4749 12.36 70.4749 11.78C70.4749 10.88 70.1449 10.15 69.4849 9.59C68.8449 9.03 68.0149 8.75 66.9949 8.75H63.4849V14.81ZM77.5109 26V5H90.8009V8.75H81.6209V13.52H89.5409V17.18H81.6209V22.25H90.9209V26H77.5109ZM93.9769 26V5H107.267V8.75H98.0869V13.52H106.007V17.18H98.0869V22.25H107.387V26H93.9769ZM112.903 20.69L112.423 15.53L122.263 5H127.573L112.903 20.69ZM110.443 26V5H114.493V26H110.443ZM122.833 26L114.463 15.32L117.433 12.86L127.903 26H122.833ZM138.823 26.36C136.703 26.36 134.823 25.9 133.183 24.98C131.563 24.04 130.293 22.76 129.373 21.14C128.453 19.5 127.993 17.63 127.993 15.53C127.993 13.39 128.453 11.51 129.373 9.89C130.293 8.25 131.553 6.97 133.153 6.05C134.773 5.13 136.633 4.67 138.733 4.67C140.853 4.67 142.713 5.14 144.313 6.08C145.933 7 147.203 8.28 148.123 9.92C149.043 11.54 149.503 13.41 149.503 15.53C149.503 17.63 149.043 19.5 148.123 21.14C147.223 22.76 145.963 24.04 144.343 24.98C142.743 25.9 140.903 26.36 138.823 26.36ZM138.823 22.61C140.103 22.61 141.223 22.31 142.183 21.71C143.163 21.09 143.923 20.25 144.463 19.19C145.023 18.13 145.303 16.91 145.303 15.53C145.303 14.13 145.023 12.9 144.463 11.84C143.903 10.78 143.133 9.95 142.153 9.35C141.173 8.73 140.033 8.42 138.733 8.42C137.473 8.42 136.343 8.73 135.343 9.35C134.363 9.95 133.593 10.78 133.033 11.84C132.473 12.9 132.193 14.13 132.193 15.53C132.193 16.91 132.473 18.13 133.033 19.19C133.593 20.25 134.373 21.09 135.373 21.71C136.373 22.31 137.523 22.61 138.823 22.61Z" fill="white"/>
<path d="M153.077 26.45C152.417 26.45 151.847 26.21 151.367 25.73C150.907 25.25 150.677 24.68 150.677 24.02C150.677 23.38 150.907 22.82 151.367 22.34C151.847 21.86 152.417 21.62 153.077 21.62C153.737 21.62 154.297 21.86 154.757 22.34C155.237 22.82 155.477 23.38 155.477 24.02C155.477 24.68 155.237 25.25 154.757 25.73C154.297 26.21 153.737 26.45 153.077 26.45Z" fill="#D3FF55"/>
</svg>
