<svg width="32" height="32" viewBox="0 0 32 32" fill="none" xmlns="http://www.w3.org/2000/svg">
<path d="M29.3333 16C29.3333 8.63616 23.3637 2.66663 16 2.66663C8.63616 2.66663 2.66663 8.63616 2.66663 16C2.66663 23.3637 8.63616 29.3333 16 29.3333" stroke="#122C24" stroke-width="2" stroke-linecap="round"/>
<path d="M26.6666 7.59861C25.4203 7.68844 23.824 8.17095 22.7171 9.60365C20.7179 12.1914 18.7186 12.4074 17.3858 11.5448C15.3864 10.2509 17.0666 8.15511 14.72 7.01616C13.1908 6.27385 12.9775 4.25389 13.8287 2.66663" stroke="#122C24" stroke-width="2" stroke-linejoin="round"/>
<path d="M2.66663 14.6666C3.68329 15.5494 5.10724 16.3576 6.78495 16.3576C10.2512 16.3576 10.9445 17.0198 10.9445 19.669C10.9445 22.3182 10.9445 22.3182 11.6377 24.305C12.0886 25.5974 12.2463 26.8898 11.3474 28" stroke="#122C24" stroke-width="2" stroke-linejoin="round"/>
<path d="M26.5316 26.5716L29.3333 29.3333M28.1443 22.7278C28.1443 25.7072 25.7242 28.1224 22.7388 28.1224C19.7534 28.1224 17.3333 25.7072 17.3333 22.7278C17.3333 19.7485 19.7534 17.3333 22.7388 17.3333C25.7242 17.3333 28.1443 19.7485 28.1443 22.7278Z" stroke="#122C24" stroke-width="2" stroke-linecap="round"/>
</svg>
